<?xml version="1.0" encoding="UTF-8" standalone="no"?>
<svg
   width="33.226162"
   height="43.509979"
   viewBox="0 0 33.226163 43.50998"
   fill="none"
   version="1.1"
   id="svg7"
   sodipodi:docname="logo2.svg"
   inkscape:version="1.4.3 (0d15f75, 2025-12-25)"
   xmlns:inkscape="http://www.inkscape.org/namespaces/inkscape"
   xmlns:sodipodi="http://sodipodi.sourceforge.net/DTD/sodipodi-0.dtd"
   xmlns="http://www.w3.org/2000/svg"
   xmlns:svg="http://www.w3.org/2000/svg">
  <defs
     id="defs7" />
  <sodipodi:namedview
     id="namedview7"
     pagecolor="#ffffff"
     bordercolor="#000000"
     borderopacity="0.25"
     inkscape:showpageshadow="2"
     inkscape:pageopacity="0.0"
     inkscape:pagecheckerboard="0"
     inkscape:deskcolor="#d1d1d1"
     inkscape:zoom="6.6814815"
     inkscape:cx="67.425166"
     inkscape:cy="21.776608"
     inkscape:window-width="2212"
     inkscape:window-height="1186"
     inkscape:window-x="0"
     inkscape:window-y="30"
     inkscape:window-maximized="0"
     inkscape:current-layer="svg7">
    <inkscape:page
       x="0"
       y="0"
       width="33.226162"
       height="43.509979"
       id="page7"
       margin="0 98.930153 0 0"
       bleed="0" />
  </sodipodi:namedview>
  <g
     id="g7"
     transform="translate(-102.67184,-1.9456763)">
    <path
       d="m 121.405,22.5473 c 0.537,0.0033 1.053,0.2054 1.451,0.5674 0.397,0.3621 0.647,0.8586 0.702,1.3944 0.853,-0.2815 1.602,-0.8139 2.149,-1.528 0.548,-0.7142 0.869,-1.5771 0.922,-2.4767 0.053,-0.8997 -0.164,-1.7946 -0.625,-2.5684 -0.46,-0.7739 -1.141,-1.3911 -1.955,-1.7714 -0.814,-0.3803 -1.723,-0.5062 -2.61,-0.3614 -0.886,0.1449 -1.708,0.5538 -2.36,1.1737 -0.652,0.6198 -1.103,1.4221 -1.295,2.3025 -0.192,0.8804 -0.115,1.7984 0.219,2.6347 0.093,0.2424 0.209,0.4753 0.347,0.6953 0.358,0 0.705,0 1.064,0 0.593,0 1.237,0 1.731,-0.0745 h 0.26 m 12.767,-4.2586 c 0,-4.5319 -5.852,-8.2442 -13.336,-8.6912 -0.323,0.8425 -0.893,1.5666 -1.636,2.0765 -0.742,0.5099 -1.621,0.7816 -2.52,0.7792 h -0.149 c 0.084,0.2435 0.21,0.4704 0.371,0.6704 0.873,-0.0358 1.722,-0.2969 2.466,-0.7579 0.743,-0.4611 1.355,-1.1066 1.777,-1.8743 v 3.5138 c 4.479,0.36 7.868,2.1355 7.868,4.271 -0.063,0.5281 -0.257,1.0319 -0.564,1.4655 -0.307,0.4337 -0.717,0.7835 -1.192,1.0177 -0.106,1.0253 -0.517,1.995 -1.178,2.7832 -0.662,0.7882 -1.545,1.3585 -2.534,1.6369 -0.1,0.4522 -0.343,0.8598 -0.693,1.1619 -0.35,0.3021 -0.788,0.4825 -1.249,0.5142 h -0.42 c -0.569,0 -1.139,0.0745 -1.732,0.0745 -0.594,0 -1.163,0 -1.732,-0.0745 v 12.6643 c 0,1.1887 0.47,2.3288 1.308,3.1694 0.837,0.8405 1.973,1.3128 3.158,1.3128 1.184,0 2.32,-0.4723 3.157,-1.3128 0.838,-0.8406 1.308,-1.9807 1.308,-3.1694 V 25.85 c 4.503,-1.4899 7.559,-4.3332 7.559,-7.5986"
       fill="#762283"
       id="path6" />
    <path
       d="m 123.333,24.4835 c -0.058,-0.5335 -0.309,-1.027 -0.706,-1.3865 -0.397,-0.3595 -0.912,-0.5598 -1.446,-0.5628 h -0.26 c -0.557,0 -1.138,0.0745 -1.732,0.0745 -0.359,0 -0.705,0 -1.064,0 -2.138,-0.0511 -4.243,-0.5413 -6.185,-1.4402 -1.497,-0.7698 -2.4,-1.7755 -2.4,-2.8805 0,-1.105 0.903,-2.1107 2.4,-2.8805 v 5.0905 c 1.815,0.847 3.778,1.328 5.777,1.4154 -0.24,-0.598 -0.347,-1.2411 -0.314,-1.8848 0.032,-0.6438 0.204,-1.2727 0.503,-1.8432 0.299,-0.5704 0.718,-1.0689 1.228,-1.4606 0.51,-0.3918 1.098,-0.6676 1.725,-0.8083 v -5.4382 c -0.422,0.7677 -1.035,1.4132 -1.778,1.8743 -0.743,0.461 -1.592,0.7221 -2.465,0.7579 h -0.223 c -0.879,-0.0018 -1.743,-0.2313 -2.508,-0.6663 -0.765,-0.435 -1.405,-1.0608 -1.858,-1.8169 h -0.087 c -4.515,1.49 -7.571,4.3332 -7.571,7.5986 0,3.2654 3.056,6.1086 7.571,7.5985 1.769,0.5685 3.601,0.9146 5.455,1.0306 0.569,0 1.151,0.0745 1.732,0.0745 0.582,0 1.163,0 1.732,-0.0745 h 0.421 c 0.46,-0.0318 0.898,-0.2122 1.248,-0.5143 0.35,-0.3021 0.594,-0.7096 0.694,-1.1619 0.019,-0.1608 0.019,-0.3234 0,-0.4842 0,-0.0745 0,-0.149 0,-0.2235 m -6.915,-12.0807 h 0.148 c 0.899,7e-4 1.777,-0.2717 2.519,-0.7814 0.742,-0.5097 1.313,-1.2328 1.638,-2.07426 0.204,-0.51338 0.309,-1.0612 0.309,-1.61407 0.002,-0.88057 -0.255,-1.7422 -0.738,-2.47733 -0.483,-0.73513 -1.171,-1.31119 -1.978,-1.65626 -0.807,-0.34508 -1.697,-0.44388 -2.56,-0.28407 -0.863,0.1598 -1.66,0.57114 -2.291,1.18266 -0.631,0.61151 -1.069,1.39611 -1.259,2.25584 -0.19,0.85973 -0.123,1.7565 0.192,2.57836 0.315,0.82183 0.864,1.53243 1.579,2.04293 0.715,0.5105 1.564,0.7983 2.441,0.8276 z m -4.305,20.089 c -0.006,0.6739 0.142,1.3403 0.431,1.9485 0.29,0.6081 0.713,1.142 1.239,1.561 0.526,0.419 1.141,0.712 1.797,0.8569 0.655,0.1449 1.336,0.1378 1.988,-0.0208 v -9.2623 c -1.853,-0.122 -3.685,-0.468 -5.455,-1.0305 z"
       fill="#f15b4e"
       id="path7" />
  </g>
</svg>
