<svg width="135" height="48" viewBox="0 0 135 48" fill="none" xmlns="http://www.w3.org/2000/svg">
	<path d="M11.7898 16.1407C6.7673 16.1407 5.20861 21.6782 5.20861 25.7755C5.20861 29.8727 6.74256 35.7082 11.7898 35.7082C16.8369 35.7082 18.2596 30.0093 18.2596 25.912C18.2596 21.8148 16.7009 16.1407 11.7898 16.1407ZM11.2207 37.4837C4.84986 37.4837 0.767578 32.8401 0.767578 26.5825C0.767578 19.6544 5.24572 14.4149 12.3217 14.4149C18.7296 14.4149 22.713 19.1454 22.713 25.4154C22.713 32.3187 18.2596 37.4837 11.2207 37.4837Z" fill="#762283"/>
	<path d="M37.0243 22.3487C36.5239 22.1736 35.9953 22.0936 35.4656 22.1128C31.7545 22.1128 29.9112 25.3037 29.9112 28.7429C29.9112 31.909 31.4081 34.8764 34.9337 34.8764C35.6428 34.8639 36.3466 34.7511 37.0243 34.5411V22.3487ZM37.0243 37.5458V35.3109C35.4131 36.4125 33.5565 37.099 31.6184 37.3099C27.6598 37.3099 25.631 33.0761 25.631 29.612C25.5806 28.4334 25.7698 27.2569 26.187 26.154C26.6042 25.0512 27.2408 24.0451 28.0579 23.1971C28.875 22.3491 29.8555 21.677 30.9398 21.2216C32.024 20.7662 33.1893 20.5372 34.3646 20.5484C35.2677 20.5606 36.164 20.707 37.0243 20.9829V16.4884L34.0677 15.6813V14.7501L41.1808 13.4216V34.5287L43.8034 35.2985V36.2297L37.0243 37.5458Z" fill="#762283"/>
	<path d="M52.0192 17.581C50.6584 17.581 49.5451 17.3823 49.5451 15.7434C49.5451 14.1045 50.6832 13.9183 51.945 13.9183C53.2068 13.9183 54.4314 14.1542 54.4314 15.6813C54.4314 17.2085 53.4047 17.581 51.9573 17.581M47.1699 36.9871V36.0062L49.9904 34.8391V23.3171L47.1699 22.4853V21.5789L54.1222 20.3373V34.8639L56.9056 36.0062V36.9498L47.1699 36.9871Z" fill="#762283"/>
	<path d="M67.63 22.0507C64.2776 22.0507 63.6096 26.0486 63.6096 28.6436C63.6096 31.2385 64.2405 35.82 67.6919 35.82C71.1433 35.82 71.7494 31.8841 71.7494 29.2892C71.7494 26.6943 71.0814 22.0507 67.6671 22.0507M67.5311 37.4837C62.6571 37.4837 59.2057 34.3425 59.2057 29.3513C59.1328 28.1858 59.306 27.018 59.7139 25.9244C60.1218 24.8307 60.7551 23.8358 61.5726 23.0048C62.39 22.1739 63.3731 21.5255 64.4575 21.1022C65.5418 20.6789 66.703 20.4901 67.8651 20.5484C72.8133 20.5484 76.2028 23.7144 76.2028 28.7429C76.2634 29.9002 76.0808 31.0574 75.6671 32.1394C75.2533 33.2214 74.6176 34.204 73.8011 35.0235C72.9846 35.843 72.0056 36.4811 70.9275 36.8963C69.8495 37.3116 68.6965 37.4948 67.5434 37.434" fill="#762283"/>
	<path d="M89.513 36.9871V36.0062L91.6408 34.8391V27.1412C91.6408 24.4718 91.2697 23.0067 88.3131 23.0067C87.432 23.0103 86.5535 23.1018 85.6905 23.2799V34.8391L88.1646 36.0062V36.9498H78.9238V36.0062L81.7443 34.8391V23.3171L78.9238 22.5101V21.6161L85.6905 20.3745V22.2369C86.3214 21.9762 86.9276 21.7403 87.6575 21.5044C88.8214 20.952 90.0826 20.6355 91.3686 20.5732C91.9631 20.5318 92.5586 20.6382 93.1023 20.8829C93.6461 21.1277 94.1213 21.5032 94.486 21.9762C95.3793 23.1655 95.7744 24.658 95.587 26.1355V34.8267L98.3704 35.9938V36.9374L89.513 36.9871Z" fill="#762283"/>
	<path d="M121.405 22.5473C121.942 22.5506 122.458 22.7527 122.856 23.1147C123.253 23.4768 123.503 23.9733 123.558 24.5091C124.411 24.2276 125.16 23.6952 125.707 22.9811C126.255 22.2669 126.576 21.404 126.629 20.5044C126.682 19.6047 126.465 18.7098 126.004 17.936C125.544 17.1621 124.863 16.5449 124.049 16.1646C123.235 15.7843 122.326 15.6584 121.439 15.8032C120.553 15.9481 119.731 16.357 119.079 16.9769C118.427 17.5967 117.976 18.399 117.784 19.2794C117.592 20.1598 117.669 21.0778 118.003 21.9141C118.096 22.1565 118.212 22.3894 118.35 22.6094C118.708 22.6094 119.055 22.6094 119.414 22.6094C120.007 22.6094 120.651 22.6094 121.145 22.5349H121.405M134.172 18.2763C134.172 13.7444 128.32 10.0321 120.836 9.5851C120.513 10.4276 119.943 11.1517 119.2 11.6616C118.458 12.1715 117.579 12.4432 116.68 12.4408H116.531C116.615 12.6843 116.741 12.9112 116.902 13.1112C117.775 13.0754 118.624 12.8143 119.368 12.3533C120.111 11.8922 120.723 11.2467 121.145 10.479V13.9928C125.624 14.3528 129.013 16.1283 129.013 18.2638C128.95 18.7919 128.756 19.2957 128.449 19.7293C128.142 20.163 127.732 20.5128 127.257 20.747C127.151 21.7723 126.74 22.742 126.079 23.5302C125.417 24.3184 124.534 24.8887 123.545 25.1671C123.445 25.6193 123.202 26.0269 122.852 26.329C122.502 26.6311 122.064 26.8115 121.603 26.8432H121.183C120.614 26.8432 120.044 26.9177 119.451 26.9177C118.857 26.9177 118.288 26.9177 117.719 26.8432V39.5075C117.719 40.6962 118.189 41.8363 119.027 42.6769C119.864 43.5174 121 43.9897 122.185 43.9897C123.369 43.9897 124.505 43.5174 125.342 42.6769C126.18 41.8363 126.65 40.6962 126.65 39.5075V25.85C131.153 24.3601 134.209 21.5168 134.209 18.2514" fill="#762283"/>
	<path d="M123.333 24.4835C123.275 23.95 123.024 23.4565 122.627 23.097C122.23 22.7375 121.715 22.5372 121.181 22.5342H120.921C120.364 22.5342 119.783 22.6087 119.189 22.6087C118.83 22.6087 118.484 22.6087 118.125 22.6087C115.987 22.5576 113.882 22.0674 111.94 21.1685C110.443 20.3987 109.54 19.393 109.54 18.288C109.54 17.183 110.443 16.1773 111.94 15.4075V20.498C113.755 21.345 115.718 21.826 117.717 21.9134C117.477 21.3154 117.37 20.6723 117.403 20.0286C117.435 19.3848 117.607 18.7559 117.906 18.1854C118.205 17.615 118.624 17.1165 119.134 16.7248C119.644 16.333 120.232 16.0572 120.859 15.9165V10.4783C120.437 11.246 119.824 11.8915 119.081 12.3526C118.338 12.8136 117.489 13.0747 116.616 13.1105H116.393C115.514 13.1087 114.65 12.8792 113.885 12.4442C113.12 12.0092 112.48 11.3834 112.027 10.6273H111.94C107.425 12.1173 104.369 14.9605 104.369 18.2259C104.369 21.4913 107.425 24.3345 111.94 25.8244C113.709 26.3929 115.541 26.739 117.395 26.855C117.964 26.855 118.546 26.9295 119.127 26.9295C119.709 26.9295 120.29 26.9295 120.859 26.855H121.28C121.74 26.8232 122.178 26.6428 122.528 26.3407C122.878 26.0386 123.122 25.6311 123.222 25.1788C123.241 25.018 123.241 24.8554 123.222 24.6946C123.222 24.6201 123.222 24.5456 123.222 24.4711M116.307 12.3904H116.455C117.354 12.3911 118.232 12.1187 118.974 11.609C119.716 11.0993 120.287 10.3762 120.612 9.53474C120.816 9.02136 120.921 8.47354 120.921 7.92067C120.923 7.0401 120.666 6.17847 120.183 5.44334C119.7 4.70821 119.012 4.13215 118.205 3.78708C117.398 3.442 116.508 3.3432 115.645 3.50301C114.782 3.66281 113.985 4.07415 113.354 4.68567C112.723 5.29718 112.285 6.08178 112.095 6.94151C111.905 7.80124 111.972 8.69801 112.287 9.51987C112.602 10.3417 113.151 11.0523 113.866 11.5628C114.581 12.0733 115.43 12.3611 116.307 12.3904ZM112.002 32.4794C111.996 33.1533 112.144 33.8197 112.433 34.4279C112.723 35.036 113.146 35.5699 113.672 35.9889C114.198 36.4079 114.813 36.7009 115.469 36.8458C116.124 36.9907 116.805 36.9836 117.457 36.825V27.5627C115.604 27.4407 113.772 27.0947 112.002 26.5322V32.4794Z" fill="#F15B4E"/>
</svg>
